<svg width="184" height="676" viewBox="0 0 184 676" fill="none" xmlns="http://www.w3.org/2000/svg">
<path d="M99.76 166.217C102.277 136.118 95.796 5.96485 76.555 4.53789C57.3139 3.11093 45.9557 120.937 43.4389 151.036C40.9221 181.135 32.6025 672.946 51.8435 674.373C71.0846 675.8 97.2431 196.316 99.76 166.217Z" fill="#DD9B6B"/>
<path d="M150.467 342.591C156.094 322.94 168.485 235.781 155.435 232.417C142.386 229.052 119.321 305.79 113.694 325.441C108.067 345.093 38.6813 670.315 51.7308 673.68C64.7804 677.045 144.84 362.242 150.467 342.591Z" fill="#6F4D35"/>
<path d="M98.8554 606.856C101.582 602.858 107.289 581.898 100.636 577.616C93.9833 573.333 82.783 588.666 80.0566 592.664C77.3302 596.662 44.2725 668.925 50.9252 673.207C57.5779 677.49 96.129 610.854 98.8554 606.856Z" fill="#523825"/>
<path d="M73.389 75.2283C76.7058 67.4143 89.1347 37.0258 94.9345 22.8083" stroke="white" stroke-width="3"/>
<path d="M70.3868 110.718C75.0651 102.739 92.7583 71.6404 101.02 57.0886" stroke="white" stroke-width="3"/>
<path d="M70.1313 136.793C75.1316 131.211 94.0095 109.435 102.823 99.2451" stroke="white" stroke-width="3"/>
<path d="M75.9078 0.826782L62.0604 310.747" stroke="white" stroke-width="4"/>
<path d="M89.8255 256.839C86.1435 299.264 78.1927 333.226 72.067 332.694C65.9413 332.162 63.9602 297.339 67.6423 254.913C71.3243 212.488 55.8012 320.226 61.927 320.757C68.0527 321.289 93.5075 214.413 89.8255 256.839Z" fill="#DD9B6B"/>
</svg>
