<svg width="32" height="38" viewBox="0 0 32 38" fill="none" xmlns="http://www.w3.org/2000/svg">
<path d="M27.8808 14.2798C31.9451 11.8317 33.2956 6.29794 29.2865 3.76047C28.547 3.29241 27.7722 2.87552 26.967 2.51419C23.5265 0.970196 19.6963 0.514521 15.9895 1.20821C12.2828 1.90191 8.87657 3.71184 6.22722 6.39552C3.57787 9.07919 1.81193 12.5084 1.16601 16.2238C0.520089 19.9392 1.02503 23.7632 2.61319 27.1836C4.20134 30.604 6.79685 33.4573 10.052 35.3613C13.3071 37.2653 17.0664 38.1291 20.8261 37.8369C21.706 37.7685 22.5761 37.6376 23.4302 37.4466C28.0604 36.4111 28.6568 30.7462 25.6572 27.0701C22.3512 23.0184 23.4014 16.9779 27.8808 14.2798Z" fill="#936442"/>
</svg>
