<svg width="32" height="38" viewBox="0 0 32 38" fill="none" xmlns="http://www.w3.org/2000/svg">
<path d="M27.8809 14.2798C31.9452 11.8317 33.2957 6.29794 29.2866 3.76047C28.5471 3.29241 27.7723 2.87552 26.9671 2.51419C23.5266 0.970196 19.6964 0.514521 15.9896 1.20821C12.2829 1.90191 8.87663 3.71184 6.22728 6.39552C3.57793 9.07919 1.81199 12.5084 1.16607 16.2238C0.52015 19.9392 1.02509 23.7632 2.61325 27.1836C4.2014 30.604 6.79691 33.4573 10.052 35.3613C13.3072 37.2653 17.0664 38.1291 20.8262 37.8369C21.7061 37.7685 22.5761 37.6376 23.4302 37.4466C28.0605 36.4111 28.6568 30.7462 25.6572 27.0701C22.3513 23.0184 23.4014 16.9779 27.8809 14.2798Z" fill="#FFCFAB"/>
</svg>
