<svg width="32" height="38" viewBox="0 0 32 38" fill="none" xmlns="http://www.w3.org/2000/svg">
<path d="M27.8809 14.28C31.9452 11.8319 33.2957 6.29819 29.2866 3.76072C28.5471 3.29265 27.7723 2.87576 26.9671 2.51443C23.5266 0.97044 19.6964 0.514765 15.9896 1.20846C12.2829 1.90215 8.87663 3.71208 6.22728 6.39576C3.57793 9.07944 1.81199 12.5087 1.16607 16.2241C0.52015 19.9394 1.02509 23.7635 2.61325 27.1838C4.2014 30.6042 6.79691 33.4575 10.052 35.3616C13.3072 37.2656 17.0664 38.1294 20.8262 37.8371C21.7061 37.7688 22.5761 37.6378 23.4302 37.4468C28.0605 36.4113 28.6568 30.7465 25.6572 27.0703C22.3513 23.0187 23.4014 16.9781 27.8809 14.28Z" fill="#DD9B6B"/>
</svg>
