<svg width="163" height="717" viewBox="0 0 163 717" fill="none" xmlns="http://www.w3.org/2000/svg">
<path d="M56.7784 172.972C54.119 141.258 60.967 4.12393 81.2986 2.62043C101.63 1.11693 113.632 125.263 116.291 156.976C118.951 188.69 127.742 706.881 107.411 708.384C87.0789 709.888 59.4379 204.685 56.7784 172.972Z" fill="#DD9B6B"/>
<path d="M27.1426 375.391C22.6282 355.595 15.1043 268.485 28.2671 265.867C41.4299 263.248 60.1426 340.612 64.657 360.408C69.1715 380.204 120.271 706.519 107.108 709.137C93.9449 711.756 31.657 395.188 27.1426 375.391Z" fill="#6F4D35"/>
<path d="M81.9225 75.3844C84.7281 66.9697 95.1432 34.2887 100 19" stroke="white" stroke-width="3"/>
<path d="M82 111C85.8356 102.956 100.265 71.6483 107 57" stroke="white" stroke-width="3"/>
<path d="M84 137C88.6027 131.339 105.918 109.308 114 99" stroke="white" stroke-width="3"/>
<path d="M79.9867 631.578C78.226 627.07 64.1484 610.527 56.8577 613.6C49.567 616.673 55.899 634.574 57.6597 639.082C59.4204 643.589 100.402 711.672 107.693 708.599C114.983 705.525 81.7474 636.085 79.9867 631.578Z" fill="#523825"/>
<path d="M77.9988 1.04358L91 311" stroke="white" stroke-width="4"/>
<path d="M114 254.893C114 297.478 109.015 332 102.867 332C96.7179 332 91.7334 297.478 91.7334 254.893C91.7334 212.309 85.5838 320.985 91.7326 320.985C97.8813 320.985 114 212.309 114 254.893Z" fill="#DD9B6B"/>
</svg>
