<?xml version="1.0" encoding="utf-8"?>
<!-- Generator: Adobe Illustrator 24.0.2, SVG Export Plug-In . SVG Version: 6.00 Build 0)  -->
<svg version="1.1" xmlns="http://www.w3.org/2000/svg" xmlns:xlink="http://www.w3.org/1999/xlink" x="0px" y="0px"
	 viewBox="0 0 1000 1000" style="enable-background:new 0 0 1000 1000;" xml:space="preserve">
<style type="text/css">
	.st0{fill:#3F0E00;}
</style>
<g id="Слой_1">
	<g>
		<path class="st0" d="M500,10C231.8,10,10,231.8,10,500s221.8,490,490,490s490-221.8,490-490S768.2,10,500,10z M500,938.4
			c-242.4,0-438.4-196-438.4-438.4S257.6,61.6,500,61.6s438.4,196,438.4,438.4S742.4,938.4,500,938.4z"/>
		<path class="st0" d="M608.3,489.7c46.4-30.9,72.2-87.7,72.2-144.4c0-98-82.5-180.5-180.5-180.5s-180.5,82.5-180.5,180.5
			c0,61.9,30.9,113.5,77.4,144.4c-103.2,36.1-175.4,113.5-175.4,185.7c0,98,175.4,154.7,283.7,154.7c103.2,0,283.7-56.7,283.7-154.7
			C783.7,603.2,711.5,525.8,608.3,489.7z M371.1,345.3c0-72.2,56.7-128.9,128.9-128.9s128.9,56.7,128.9,128.9S572.2,474.2,500,474.2
			S371.1,417.5,371.1,345.3z M500,778.5c-87.7,0-226.9-41.3-226.9-108.3c0-72.2,103.2-144.4,226.9-144.4
			c123.8,0,226.9,72.2,226.9,144.4S587.7,778.5,500,778.5z"/>
	</g>
</g>
<g id="Слой_2">
</g>
</svg>
