<svg xmlns="http://www.w3.org/2000/svg" viewBox="0 0 52.75 12.73"><defs><style>.cls-1{fill:#f7931e;}.cls-2{stroke:#000;stroke-miterlimit:10;stroke-width:0.25px;}.cls-3{font-size:12px;font-family:GOSTTypeA, GOST type A;}</style></defs><title>Ресурс 5</title><g id="Слой_2" data-name="Слой 2"><g id="Слой_1-2" data-name="Слой 1"><path class="cls-1" d="M0,3.52C1.82,4.43,3.63,5.3,5.48,6A17.9,17.9,0,0,0,8.3,7a3.66,3.66,0,0,0,1.38.1c.42-.1.57-.33.48-.79C10,5.39,9.4,4.52,9.25,3.39a1.76,1.76,0,0,1,.67-1.67,2.91,2.91,0,0,1,1.64-.45,8.67,8.67,0,0,1,3,.65,7.16,7.16,0,0,1,2.54,1.69l0,.05a9,9,0,0,0-2.67-1.25A8.7,8.7,0,0,0,11.59,2a2.24,2.24,0,0,0-1.22.33,1,1,0,0,0-.38,1c.06.89.59,1.78.77,2.87a1.36,1.36,0,0,1-.16.92,1.22,1.22,0,0,1-.82.48,4.13,4.13,0,0,1-1.59-.16A18.41,18.41,0,0,1,5.33,6.39C3.5,5.54,1.74,4.58,0,3.58Z"/><circle class="cls-2" cx="36.55" cy="3.42" r="0.39"/><path class="cls-1" d="M37.91,1.94a1.63,1.63,0,0,0,1.26.54,3.91,3.91,0,0,0,1.54-.3l.79-.32L41,2.47A8,8,0,0,1,38,4.5a7.63,7.63,0,0,0,2.61-2.27l.24.29a4.56,4.56,0,0,1-1.7.53,2.33,2.33,0,0,1-1.82-.59Z"/><text class="cls-3" transform="translate(14.67 10.1)">ИглоГусь</text><ellipse class="cls-1" cx="15.33" cy="2.47" rx="0.19" ry="0.27"/></g></g></svg>