<svg width="194" height="115" viewBox="0 0 194 115" fill="none" xmlns="http://www.w3.org/2000/svg">
<path d="M86.2861 8.55639C77.6457 3.46365 67.8111 0.749219 57.7817 0.688978C47.7524 0.628737 37.8859 3.22483 29.185 8.21342C20.484 13.202 13.259 20.4052 8.24403 29.091C3.2291 37.7767 0.603134 47.6353 0.632985 57.6648C0.662837 67.6943 3.34746 77.5371 8.41399 86.1929C13.4805 94.8486 20.7484 102.009 29.4788 106.945C38.2092 111.882 48.091 114.419 58.1199 114.299C67.8258 114.183 99.2737 104.312 109.093 99.0131C109.704 98.6836 110.331 98.3865 110.987 98.1612L186.461 72.2611C195.047 69.3146 195.582 57.374 187.293 53.6719L86.2861 8.55639Z" fill="#6F4D35"/>
</svg>
